<?xml version="1.0" encoding="UTF-8" standalone="no"?>
<!-- Created with Inkscape (http://www.inkscape.org/) -->

<svg
   xmlns:dc="http://purl.org/dc/elements/1.1/"
   xmlns:cc="http://creativecommons.org/ns#"
   xmlns:rdf="http://www.w3.org/1999/02/22-rdf-syntax-ns#"
   xmlns:svg="http://www.w3.org/2000/svg"
   xmlns="http://www.w3.org/2000/svg"
   xmlns:sodipodi="http://sodipodi.sourceforge.net/DTD/sodipodi-0.dtd"
   xmlns:inkscape="http://www.inkscape.org/namespaces/inkscape"
   width="625.62262"
   height="39.522217"
   id="svg7651"
   version="1.1"
   inkscape:version="0.48.4 r9939"
   sodipodi:docname="intentional_plan.pdf">
  <defs
     id="defs7653">
    <clipPath
       id="clipPath2"
       clipPathUnits="userSpaceOnUse">
      <path
         id="path4115"
         d="m 458,67 614,0 0,713 -614,0 0,-713 z"
         inkscape:connector-curvature="0" />
    </clipPath>
    <clipPath
       id="clipPath2-4"
       clipPathUnits="userSpaceOnUse">
      <path
         id="path4115-4"
         d="m 458,67 614,0 0,713 -614,0 0,-713 z"
         inkscape:connector-curvature="0" />
    </clipPath>
    <clipPath
       id="clipPath2-1"
       clipPathUnits="userSpaceOnUse">
      <path
         id="path4115-6"
         d="m 458,67 614,0 0,713 -614,0 0,-713 z"
         inkscape:connector-curvature="0" />
    </clipPath>
    <clipPath
       id="clipPath2-4-6"
       clipPathUnits="userSpaceOnUse">
      <path
         id="path4115-4-7"
         d="m 458,67 614,0 0,713 -614,0 0,-713 z"
         inkscape:connector-curvature="0" />
    </clipPath>
    <clipPath
       id="clipPath2-1-1"
       clipPathUnits="userSpaceOnUse">
      <path
         id="path4115-6-9"
         d="m 458,67 614,0 0,713 -614,0 0,-713 z"
         inkscape:connector-curvature="0" />
    </clipPath>
    <clipPath
       id="clipPath2-4-6-7"
       clipPathUnits="userSpaceOnUse">
      <path
         id="path4115-4-7-8"
         d="m 458,67 614,0 0,713 -614,0 0,-713 z"
         inkscape:connector-curvature="0" />
    </clipPath>
    <clipPath
       id="clipPath2-41"
       clipPathUnits="userSpaceOnUse">
      <path
         id="path4115-1"
         d="m 458,67 614,0 0,713 -614,0 0,-713 z"
         inkscape:connector-curvature="0" />
    </clipPath>
    <clipPath
       id="clipPath2-4-9"
       clipPathUnits="userSpaceOnUse">
      <path
         id="path4115-4-1"
         d="m 458,67 614,0 0,713 -614,0 0,-713 z"
         inkscape:connector-curvature="0" />
    </clipPath>
    <clipPath
       id="clipPath2-41-3"
       clipPathUnits="userSpaceOnUse">
      <path
         id="path4115-1-2"
         d="m 458,67 614,0 0,713 -614,0 0,-713 z"
         inkscape:connector-curvature="0" />
    </clipPath>
    <clipPath
       id="clipPath2-4-9-1"
       clipPathUnits="userSpaceOnUse">
      <path
         id="path4115-4-1-5"
         d="m 458,67 614,0 0,713 -614,0 0,-713 z"
         inkscape:connector-curvature="0" />
    </clipPath>
    <clipPath
       id="clipPath2-4-9-1-8"
       clipPathUnits="userSpaceOnUse">
      <path
         id="path4115-4-1-5-7"
         d="m 458,67 614,0 0,713 -614,0 0,-713 z"
         inkscape:connector-curvature="0" />
    </clipPath>
    <clipPath
       id="clipPath2-1-6"
       clipPathUnits="userSpaceOnUse">
      <path
         id="path4115-6-3"
         d="m 458,67 614,0 0,713 -614,0 0,-713 z"
         inkscape:connector-curvature="0" />
    </clipPath>
    <clipPath
       id="clipPath2-4-6-8"
       clipPathUnits="userSpaceOnUse">
      <path
         id="path4115-4-7-2"
         d="m 458,67 614,0 0,713 -614,0 0,-713 z"
         inkscape:connector-curvature="0" />
    </clipPath>
    <clipPath
       id="clipPath2-4-9-1-3"
       clipPathUnits="userSpaceOnUse">
      <path
         id="path4115-4-1-5-3"
         d="m 458,67 614,0 0,713 -614,0 0,-713 z"
         inkscape:connector-curvature="0" />
    </clipPath>
    <clipPath
       id="clipPath2-5"
       clipPathUnits="userSpaceOnUse">
      <path
         id="path4115-9"
         d="m 458,67 614,0 0,713 -614,0 0,-713 z"
         inkscape:connector-curvature="0" />
    </clipPath>
    <clipPath
       id="clipPath2-4-8"
       clipPathUnits="userSpaceOnUse">
      <path
         id="path4115-4-3"
         d="m 458,67 614,0 0,713 -614,0 0,-713 z"
         inkscape:connector-curvature="0" />
    </clipPath>
    <clipPath
       id="clipPath2-5-3"
       clipPathUnits="userSpaceOnUse">
      <path
         id="path4115-9-1"
         d="m 458,67 614,0 0,713 -614,0 0,-713 z"
         inkscape:connector-curvature="0" />
    </clipPath>
    <clipPath
       id="clipPath2-4-8-3"
       clipPathUnits="userSpaceOnUse">
      <path
         id="path4115-4-3-5"
         d="m 458,67 614,0 0,713 -614,0 0,-713 z"
         inkscape:connector-curvature="0" />
    </clipPath>
    <clipPath
       id="clipPath2-4-9-1-3-5"
       clipPathUnits="userSpaceOnUse">
      <path
         id="path4115-4-1-5-3-6"
         d="m 458,67 614,0 0,713 -614,0 0,-713 z"
         inkscape:connector-curvature="0" />
    </clipPath>
    <clipPath
       id="clipPath2-4-9-1-3-7"
       clipPathUnits="userSpaceOnUse">
      <path
         id="path4115-4-1-5-3-4"
         d="m 458,67 614,0 0,713 -614,0 0,-713 z"
         inkscape:connector-curvature="0" />
    </clipPath>
    <clipPath
       id="clipPath2-4-9-1-81"
       clipPathUnits="userSpaceOnUse">
      <path
         id="path4115-4-1-5-8"
         d="m 458,67 614,0 0,713 -614,0 0,-713 z"
         inkscape:connector-curvature="0" />
    </clipPath>
    <clipPath
       id="clipPath2-4-9-1-81-9"
       clipPathUnits="userSpaceOnUse">
      <path
         id="path4115-4-1-5-8-1"
         d="m 458,67 614,0 0,713 -614,0 0,-713 z"
         inkscape:connector-curvature="0" />
    </clipPath>
  </defs>
  <sodipodi:namedview
     id="base"
     pagecolor="#ffffff"
     bordercolor="#666666"
     borderopacity="1.0"
     inkscape:pageopacity="0.0"
     inkscape:pageshadow="2"
     inkscape:zoom="1.4"
     inkscape:cx="324.27657"
     inkscape:cy="16.77336"
     inkscape:document-units="px"
     inkscape:current-layer="layer1"
     showgrid="false"
     inkscape:window-width="1918"
     inkscape:window-height="1078"
     inkscape:window-x="1366"
     inkscape:window-y="0"
     inkscape:window-maximized="0"
     fit-margin-top="0"
     fit-margin-left="0"
     fit-margin-right="0"
     fit-margin-bottom="0" />
  <metadata
     id="metadata7656">
    <rdf:RDF>
      <cc:Work
         rdf:about="">
        <dc:format>image/svg+xml</dc:format>
        <dc:type
           rdf:resource="http://purl.org/dc/dcmitype/StillImage" />
        <dc:title></dc:title>
      </cc:Work>
    </rdf:RDF>
  </metadata>
  <g
     inkscape:label="Layer 1"
     inkscape:groupmode="layer"
     id="layer1"
     transform="translate(-67.376066,-608.87676)">
    <path
       d="m 852.9464,376.093 -3.6081,-12.4893 -2.0232,5.4687 -5.7774,0.7883 z"
       clip-path="url(#clipPath2)"
       id="path4243"
       inkscape:connector-curvature="0"
       style="font-size:12px;font-style:normal;font-weight:normal;fill:#0000ff;fill-opacity:1;stroke:none;font-family:Dialog"
       transform="matrix(0.27781565,-0.96063441,0.96063441,0.27781565,-216.96193,1329.7142)" />
    <path
       d="m 867,415.9951 0,22.0322"
       clip-path="url(#clipPath2-4)"
       id="path4253"
       inkscape:connector-curvature="0"
       style="font-size:12px;font-style:normal;font-weight:normal;fill:#0000ff;stroke:#0000ff;stroke-width:0.63039541;stroke-linecap:butt;stroke-linejoin:miter;stroke-miterlimit:1.45000005;stroke-opacity:1;stroke-dasharray:none;stroke-dashoffset:0;font-family:Dialog"
       transform="matrix(0.43051725,0.90258235,-2.2712282,1.0833393,944.74629,-615.00867)" />
    <g
       id="g8250"
       transform="translate(-21.980584,-10.898114)">
      <path
         transform="matrix(0.87763643,-0.47932693,0.47932693,0.87763643,-716.94751,731.33788)"
         style="font-size:12px;font-style:normal;font-weight:normal;fill:#000000;fill-opacity:1;stroke:none;font-family:Dialog"
         inkscape:connector-curvature="0"
         id="path4243-5"
         clip-path="url(#clipPath2-1)"
         d="m 852.9464,376.093 -3.6081,-12.4893 -2.0232,5.4687 -5.7774,0.7883 z" />
      <path
         transform="matrix(0.43051725,-0.90258235,-2.2712282,-1.0833393,775.25215,1882.446)"
         style="font-size:12px;font-style:normal;font-weight:normal;fill:none;stroke:#000000;stroke-width:0.63039541;stroke-linecap:butt;stroke-linejoin:miter;stroke-miterlimit:1.45000005;stroke-opacity:1;stroke-dasharray:none;stroke-dashoffset:0;font-family:Dialog"
         inkscape:connector-curvature="0"
         id="path4253-4"
         clip-path="url(#clipPath2-4-6)"
         d="m 867,415.9951 0,22.0322" />
    </g>
    <path
       sodipodi:type="arc"
       style="color:#000000;fill:#000000;fill-opacity:1;fill-rule:nonzero;stroke:none;stroke-width:1;marker:none;visibility:visible;display:inline;overflow:visible;enable-background:accumulate"
       id="path8342"
       sodipodi:cx="75.761444"
       sodipodi:cy="517.48639"
       sodipodi:rx="3.0304577"
       sodipodi:ry="3.0304577"
       d="m 78.791902,517.48639 c 0,1.67367 -1.356782,3.03046 -3.030458,3.03046 -1.673676,0 -3.030458,-1.35679 -3.030458,-3.03046 0,-1.67368 1.356782,-3.03046 3.030458,-3.03046 1.673676,0 3.030458,1.35678 3.030458,3.03046 z"
       transform="matrix(1.4166667,0,0,1.4166667,20.297142,-119.93583)" />
    <path
       sodipodi:type="arc"
       style="color:#000000;fill:#000000;fill-opacity:1;fill-rule:nonzero;stroke:none;stroke-width:1;marker:none;visibility:visible;display:inline;overflow:visible;enable-background:accumulate"
       id="path8342-5"
       sodipodi:cx="75.761444"
       sodipodi:cy="517.48639"
       sodipodi:rx="3.0304577"
       sodipodi:ry="3.0304577"
       d="m 78.791902,517.48639 c 0,1.67367 -1.356782,3.03046 -3.030458,3.03046 -1.673676,0 -3.030458,-1.35679 -3.030458,-3.03046 0,-1.67368 1.356782,-3.03046 3.030458,-3.03046 1.673676,0 3.030458,1.35678 3.030458,3.03046 z"
       transform="matrix(1.4166667,0,0,1.4166667,85.806344,-90.01132)" />
    <path
       d="m 867,415.9951 0,22.0322"
       clip-path="url(#clipPath2-4-9-1)"
       id="path4253-1-4"
       inkscape:connector-curvature="0"
       style="font-size:12px;font-style:normal;font-weight:normal;fill:none;stroke:#000000;stroke-width:0.55898374;stroke-linecap:butt;stroke-linejoin:miter;stroke-miterlimit:1.45000005;stroke-opacity:1;stroke-dasharray:2.23593487, 2.23593487;stroke-dashoffset:0;font-family:Dialog"
       transform="matrix(0.48493283,1.0191159,-2.558302,1.2232105,894.77875,-776.43819)" />
    <path
       sodipodi:type="arc"
       style="color:#000000;fill:#000000;fill-opacity:1;fill-rule:nonzero;stroke:none;stroke-width:1;marker:none;visibility:visible;display:inline;overflow:visible;enable-background:accumulate"
       id="path8342-5-2"
       sodipodi:cx="75.761444"
       sodipodi:cy="517.48639"
       sodipodi:rx="3.0304577"
       sodipodi:ry="3.0304577"
       d="m 78.791902,517.48639 c 0,1.67367 -1.356782,3.03046 -3.030458,3.03046 -1.673676,0 -3.030458,-1.35679 -3.030458,-3.03046 0,-1.67368 1.356782,-3.03046 3.030458,-3.03046 1.673676,0 3.030458,1.35678 3.030458,3.03046 z"
       transform="matrix(1.4166667,0,0,1.4166667,147.19158,-118.93989)" />
    <path
       d="m 867,415.9951 0,22.0322"
       clip-path="url(#clipPath2-4-9-1-8)"
       id="path4253-1-4-8"
       inkscape:connector-curvature="0"
       style="font-size:12px;font-style:normal;font-weight:normal;fill:none;stroke:#000000;stroke-width:0.55898374;stroke-linecap:butt;stroke-linejoin:miter;stroke-miterlimit:1.45000005;stroke-opacity:1;stroke-dasharray:2.23593487, 2.23593487;stroke-dashoffset:0;font-family:Dialog"
       transform="matrix(0.48493283,1.0191159,-2.558302,1.2232105,768.04542,-777.57588)" />
    <path
       d="m 852.9464,376.093 -3.6081,-12.4893 -2.0232,5.4687 -5.7774,0.7883 z"
       clip-path="url(#clipPath2-1-6)"
       id="path4243-5-7"
       inkscape:connector-curvature="0"
       style="font-size:12px;font-style:normal;font-weight:normal;fill:#0000ff;fill-opacity:1;stroke:none;font-family:Dialog"
       transform="matrix(0.87763643,-0.47932693,0.47932693,0.87763643,-612.3304,721.76301)" />
    <path
       d="m 867,415.9951 0,22.0322"
       clip-path="url(#clipPath2-4-6-8)"
       id="path4253-4-9"
       inkscape:connector-curvature="0"
       style="font-size:12px;font-style:normal;font-weight:normal;fill:#0000ff;stroke:#0000ff;stroke-width:0.63039541;stroke-linecap:butt;stroke-linejoin:miter;stroke-miterlimit:1.45000005;stroke-opacity:1;stroke-dasharray:none;stroke-dashoffset:0;font-family:Dialog"
       transform="matrix(0.43051725,-0.90258235,-2.2712282,-1.0833393,879.86926,1872.8711)" />
    <path
       sodipodi:type="arc"
       style="color:#000000;fill:#000000;fill-opacity:1;fill-rule:nonzero;stroke:none;stroke-width:1;marker:none;visibility:visible;display:inline;overflow:visible;enable-background:accumulate"
       id="path8342-5-2-7"
       sodipodi:cx="75.761444"
       sodipodi:cy="517.48639"
       sodipodi:rx="3.0304577"
       sodipodi:ry="3.0304577"
       d="m 78.791902,517.48639 c 0,1.67367 -1.356782,3.03046 -3.030458,3.03046 -1.673676,0 -3.030458,-1.35679 -3.030458,-3.03046 0,-1.67368 1.356782,-3.03046 3.030458,-3.03046 1.673676,0 3.030458,1.35678 3.030458,3.03046 z"
       transform="matrix(1.4166667,0,0,1.4166667,212.85746,-88.999911)" />
    <path
       sodipodi:type="arc"
       style="color:#000000;fill:#000000;fill-opacity:1;fill-rule:nonzero;stroke:none;stroke-width:1;marker:none;visibility:visible;display:inline;overflow:visible;enable-background:accumulate"
       id="path8342-5-2-2"
       sodipodi:cx="75.761444"
       sodipodi:cy="517.48639"
       sodipodi:rx="3.0304577"
       sodipodi:ry="3.0304577"
       d="m 78.791902,517.48639 c 0,1.67367 -1.356782,3.03046 -3.030458,3.03046 -1.673676,0 -3.030458,-1.35679 -3.030458,-3.03046 0,-1.67368 1.356782,-3.03046 3.030458,-3.03046 1.673676,0 3.030458,1.35678 3.030458,3.03046 z"
       transform="matrix(1.4166667,0,0,1.4166667,276.59985,-118.6007)" />
    <path
       d="m 867,415.9951 0,22.0322"
       clip-path="url(#clipPath2-4-9-1-3)"
       id="path4253-1-4-86"
       inkscape:connector-curvature="0"
       style="font-size:12px;font-style:normal;font-weight:normal;fill:none;stroke:#000000;stroke-width:0.55898374;stroke-linecap:butt;stroke-linejoin:miter;stroke-miterlimit:1.45000005;stroke-opacity:1;stroke-dasharray:2.23593487, 2.23593487;stroke-dashoffset:0;font-family:Dialog"
       transform="matrix(0.48493283,-1.0191159,-2.558302,-1.2232105,1085.2011,2034.4246)" />
    <path
       d="m 852.9464,376.093 -3.6081,-12.4893 -2.0232,5.4687 -5.7774,0.7883 z"
       clip-path="url(#clipPath2-5)"
       id="path4243-1"
       inkscape:connector-curvature="0"
       style="font-size:12px;font-style:normal;font-weight:normal;fill:#0000ff;fill-opacity:1;stroke:none;font-family:Dialog"
       transform="matrix(0.27781565,-0.96063441,0.96063441,0.27781565,-91.876446,1329.5566)" />
    <path
       d="m 867,415.9951 0,22.0322"
       clip-path="url(#clipPath2-4-8)"
       id="path4253-0"
       inkscape:connector-curvature="0"
       style="font-size:12px;font-style:normal;font-weight:normal;fill:#0000ff;stroke:#0000ff;stroke-width:0.63039541;stroke-linecap:butt;stroke-linejoin:miter;stroke-miterlimit:1.45000005;stroke-opacity:1;stroke-dasharray:none;stroke-dashoffset:0;font-family:Dialog"
       transform="matrix(0.43051725,0.90258235,-2.2712282,1.0833393,1069.8318,-615.1662)" />
    <path
       sodipodi:type="arc"
       style="color:#000000;fill:#000000;fill-opacity:1;fill-rule:nonzero;stroke:none;stroke-width:1;marker:none;visibility:visible;display:inline;overflow:visible;enable-background:accumulate"
       id="path8342-5-2-7-6"
       sodipodi:cx="75.761444"
       sodipodi:cy="517.48639"
       sodipodi:rx="3.0304577"
       sodipodi:ry="3.0304577"
       d="m 78.791902,517.48639 c 0,1.67367 -1.356782,3.03046 -3.030458,3.03046 -1.673676,0 -3.030458,-1.35679 -3.030458,-3.03046 0,-1.67368 1.356782,-3.03046 3.030458,-3.03046 1.673676,0 3.030458,1.35678 3.030458,3.03046 z"
       transform="matrix(1.4166667,0,0,1.4166667,337.94294,-89.157439)" />
    <path
       sodipodi:type="arc"
       style="color:#000000;fill:#000000;fill-opacity:1;fill-rule:nonzero;stroke:none;stroke-width:1;marker:none;visibility:visible;display:inline;overflow:visible;enable-background:accumulate"
       id="path8342-5-2-2-3"
       sodipodi:cx="75.761444"
       sodipodi:cy="517.48639"
       sodipodi:rx="3.0304577"
       sodipodi:ry="3.0304577"
       d="m 78.791902,517.48639 c 0,1.67367 -1.356782,3.03046 -3.030458,3.03046 -1.673676,0 -3.030458,-1.35679 -3.030458,-3.03046 0,-1.67368 1.356782,-3.03046 3.030458,-3.03046 1.673676,0 3.030458,1.35678 3.030458,3.03046 z"
       transform="matrix(1.4166667,0,0,1.4166667,401.68534,-118.75824)" />
    <path
       d="m 867,415.9951 0,22.0322"
       clip-path="url(#clipPath2-4-9-1-3-5)"
       id="path4253-1-4-86-2"
       inkscape:connector-curvature="0"
       style="font-size:12px;font-style:normal;font-weight:normal;fill:none;stroke:#000000;stroke-width:0.55898374;stroke-linecap:butt;stroke-linejoin:miter;stroke-miterlimit:1.45000005;stroke-opacity:1;stroke-dasharray:2.23593487, 2.23593487;stroke-dashoffset:0;font-family:Dialog"
       transform="matrix(0.48493283,-1.0191159,-2.558302,-1.2232105,1210.8726,2034.4246)" />
    <path
       d="m 852.9464,376.093 -3.6081,-12.4893 -2.0232,5.4687 -5.7774,0.7883 z"
       clip-path="url(#clipPath2-5-3)"
       id="path4243-1-1"
       inkscape:connector-curvature="0"
       style="font-size:12px;font-style:normal;font-weight:normal;fill:#0000ff;fill-opacity:1;stroke:none;font-family:Dialog"
       transform="matrix(0.27781565,-0.96063441,0.96063441,0.27781565,33.795094,1329.5566)" />
    <path
       d="m 867,415.9951 0,22.0322"
       clip-path="url(#clipPath2-4-8-3)"
       id="path4253-0-8"
       inkscape:connector-curvature="0"
       style="font-size:12px;font-style:normal;font-weight:normal;fill:#0000ff;stroke:#0000ff;stroke-width:0.63039541;stroke-linecap:butt;stroke-linejoin:miter;stroke-miterlimit:1.45000005;stroke-opacity:1;stroke-dasharray:none;stroke-dashoffset:0;font-family:Dialog"
       transform="matrix(0.43051725,0.90258235,-2.2712282,1.0833393,1195.5033,-615.1662)" />
    <path
       sodipodi:type="arc"
       style="color:#000000;fill:#000000;fill-opacity:1;fill-rule:nonzero;stroke:none;stroke-width:1;marker:none;visibility:visible;display:inline;overflow:visible;enable-background:accumulate"
       id="path8342-5-2-7-6-6"
       sodipodi:cx="75.761444"
       sodipodi:cy="517.48639"
       sodipodi:rx="3.0304577"
       sodipodi:ry="3.0304577"
       d="m 78.791902,517.48639 c 0,1.67367 -1.356782,3.03046 -3.030458,3.03046 -1.673676,0 -3.030458,-1.35679 -3.030458,-3.03046 0,-1.67368 1.356782,-3.03046 3.030458,-3.03046 1.673676,0 3.030458,1.35678 3.030458,3.03046 z"
       transform="matrix(1.4166667,0,0,1.4166667,463.61448,-89.157433)" />
    <path
       sodipodi:type="arc"
       style="color:#000000;fill:#000000;fill-opacity:1;fill-rule:nonzero;stroke:none;stroke-width:1;marker:none;visibility:visible;display:inline;overflow:visible;enable-background:accumulate"
       id="path8342-5-2-2-3-6"
       sodipodi:cx="75.761444"
       sodipodi:cy="517.48639"
       sodipodi:rx="3.0304577"
       sodipodi:ry="3.0304577"
       d="m 78.791902,517.48639 c 0,1.67367 -1.356782,3.03046 -3.030458,3.03046 -1.673676,0 -3.030458,-1.35679 -3.030458,-3.03046 0,-1.67368 1.356782,-3.03046 3.030458,-3.03046 1.673676,0 3.030458,1.35678 3.030458,3.03046 z"
       transform="matrix(1.4166667,0,0,1.4166667,527.35688,-118.75824)" />
    <path
       d="m 867,415.9951 0,22.0322"
       clip-path="url(#clipPath2-4-9-1-3-7)"
       id="path4253-1-4-86-5"
       inkscape:connector-curvature="0"
       style="font-size:12px;font-style:normal;font-weight:normal;fill:none;stroke:#000000;stroke-width:0.55898374;stroke-linecap:butt;stroke-linejoin:miter;stroke-miterlimit:1.45000005;stroke-opacity:1;stroke-dasharray:2.23593487, 2.23593487;stroke-dashoffset:0;font-family:Dialog"
       transform="matrix(0.48493283,-1.0191159,-2.558302,-1.2232105,1336.303,2034.5013)" />
    <text
       xml:space="preserve"
       style="font-size:14px;font-style:normal;font-variant:normal;font-weight:500;font-stretch:normal;line-height:125%;letter-spacing:0px;word-spacing:0px;writing-mode:lr-tb;fill:#000000;fill-opacity:1;stroke:none;font-family:CMU Sans Serif;-inkscape-font-specification:CMU Sans Serif Medium"
       x="145.10303"
       y="639.73077"
       id="text8660"
       sodipodi:linespacing="125%"><tspan
         sodipodi:role="line"
         id="tspan8662"
         x="145.10303"
         y="639.73077">s<tspan
   style="font-size:65.00091553%;baseline-shift:sub"
   id="tspan8664">m</tspan></tspan></text>
    <text
       xml:space="preserve"
       style="font-size:14px;font-style:normal;font-variant:normal;font-weight:500;font-stretch:normal;line-height:125%;letter-spacing:0px;word-spacing:0px;writing-mode:lr-tb;fill:#000000;fill-opacity:1;stroke:none;font-family:CMU Sans Serif;-inkscape-font-specification:CMU Sans Serif Medium"
       x="601.63544"
       y="639.73077"
       id="text8660-4"
       sodipodi:linespacing="125%"><tspan
         sodipodi:role="line"
         id="tspan8662-8"
         x="601.63544"
         y="639.73077">s<tspan
   style="font-size:65.00091553%;baseline-shift:sub"
   id="tspan8698">fin</tspan></tspan></text>
    <text
       xml:space="preserve"
       style="font-size:14px;font-style:normal;font-variant:normal;font-weight:500;font-stretch:normal;line-height:125%;letter-spacing:0px;word-spacing:0px;writing-mode:lr-tb;fill:#000000;fill-opacity:1;stroke:none;font-family:CMU Sans Serif;-inkscape-font-specification:CMU Sans Serif Medium"
       x="273.88257"
       y="639.73077"
       id="text8660-1"
       sodipodi:linespacing="125%"><tspan
         sodipodi:role="line"
         id="tspan8662-4"
         x="273.88257"
         y="639.73077">s<tspan
   style="font-size:65.00091553%;baseline-shift:sub"
   id="tspan8826">i</tspan></tspan></text>
    <text
       xml:space="preserve"
       style="font-size:14px;font-style:normal;font-variant:normal;font-weight:500;font-stretch:normal;line-height:125%;letter-spacing:0px;word-spacing:0px;writing-mode:lr-tb;fill:#000000;fill-opacity:1;stroke:none;font-family:CMU Sans Serif;-inkscape-font-specification:CMU Sans Serif Medium"
       x="348.52795"
       y="639.35309"
       id="text8660-1-8"
       sodipodi:linespacing="125%"><tspan
         sodipodi:role="line"
         id="tspan8662-4-2"
         x="348.52795"
         y="639.35309">s<tspan
   style="font-size:65.00091553%;baseline-shift:sub"
   id="tspan8826-5">i+1</tspan></tspan></text>
    <text
       xml:space="preserve"
       style="font-size:14px;font-style:normal;font-variant:normal;font-weight:500;font-stretch:normal;line-height:125%;letter-spacing:0px;word-spacing:0px;writing-mode:lr-tb;fill:#000000;fill-opacity:1;stroke:none;font-family:CMU Sans Serif;-inkscape-font-specification:CMU Sans Serif Medium"
       x="474.86206"
       y="639.35309"
       id="text8660-1-8-3"
       sodipodi:linespacing="125%"><tspan
         sodipodi:role="line"
         id="tspan8662-4-2-1"
         x="474.86206"
         y="639.35309">s<tspan
   style="font-size:65.00091553%;baseline-shift:sub"
   id="tspan8826-5-9">i+x</tspan></tspan></text>
  </g>
</svg>
